<mxfile host="app.diagrams.net" agent="Mozilla/5.0 (X11; Linux x86_64) AppleWebKit/537.36 (KHTML, like Gecko) Chrome/141.0.0.0 Safari/537.36" version="28.2.8">
  <diagram name="Page-1" id="7w7r3kvUFcRNMdiOJ8uH">
    <mxGraphModel dx="1218" dy="722" grid="1" gridSize="10" guides="1" tooltips="1" connect="1" arrows="1" fold="1" page="1" pageScale="1" pageWidth="850" pageHeight="1100" math="0" shadow="0">
      <root>
        <mxCell id="0" />
        <mxCell id="1" parent="0" />
        <mxCell id="ZVY8FTALhbSQle76y_pE-8" value="" style="ellipse;shape=cloud;whiteSpace=wrap;html=1;dashed=1;" vertex="1" parent="1">
          <mxGeometry x="80.5" y="980" width="570" height="375" as="geometry" />
        </mxCell>
        <mxCell id="ZVY8FTALhbSQle76y_pE-43" style="edgeStyle=orthogonalEdgeStyle;rounded=0;orthogonalLoop=1;jettySize=auto;html=1;exitX=0.601;exitY=0.985;exitDx=0;exitDy=0;entryX=0.5;entryY=0;entryDx=0;entryDy=0;exitPerimeter=0;" edge="1" parent="1" source="ZVY8FTALhbSQle76y_pE-19" target="ZVY8FTALhbSQle76y_pE-37">
          <mxGeometry relative="1" as="geometry" />
        </mxCell>
        <mxCell id="ZVY8FTALhbSQle76y_pE-44" value="Bundle-Transaction is included like any other" style="edgeLabel;html=1;align=center;verticalAlign=middle;resizable=0;points=[];" vertex="1" connectable="0" parent="ZVY8FTALhbSQle76y_pE-43">
          <mxGeometry x="0.4342" y="-2" relative="1" as="geometry">
            <mxPoint as="offset" />
          </mxGeometry>
        </mxCell>
        <mxCell id="ZVY8FTALhbSQle76y_pE-45" value="Executed with Bundler&#39;s EOA and Gas" style="edgeLabel;html=1;align=center;verticalAlign=middle;resizable=0;points=[];" vertex="1" connectable="0" parent="ZVY8FTALhbSQle76y_pE-43">
          <mxGeometry x="0.7901" relative="1" as="geometry">
            <mxPoint x="11" as="offset" />
          </mxGeometry>
        </mxCell>
        <mxCell id="ZVY8FTALhbSQle76y_pE-19" value="" style="rounded=0;whiteSpace=wrap;html=1;" vertex="1" parent="1">
          <mxGeometry x="185" y="1090" width="375" height="200" as="geometry" />
        </mxCell>
        <mxCell id="ZVY8FTALhbSQle76y_pE-7" value="" style="rounded=0;whiteSpace=wrap;html=1;strokeColor=none;" vertex="1" parent="1">
          <mxGeometry x="1130" y="680" width="760" height="690" as="geometry" />
        </mxCell>
        <mxCell id="ZYoF0feH29Gr8LBUgofb-40" value="" style="rounded=0;whiteSpace=wrap;html=1;strokeColor=none;" parent="1" vertex="1">
          <mxGeometry x="58" y="40" width="760" height="300" as="geometry" />
        </mxCell>
        <mxCell id="ZYoF0feH29Gr8LBUgofb-3" value="" style="endArrow=none;dashed=1;html=1;rounded=0;" parent="1" edge="1">
          <mxGeometry width="50" height="50" relative="1" as="geometry">
            <mxPoint x="320" y="310" as="sourcePoint" />
            <mxPoint x="320" y="60" as="targetPoint" />
          </mxGeometry>
        </mxCell>
        <mxCell id="ZYoF0feH29Gr8LBUgofb-5" value="" style="shape=curlyBracket;whiteSpace=wrap;html=1;rounded=1;labelPosition=left;verticalLabelPosition=middle;align=right;verticalAlign=middle;rotation=-90;" parent="1" vertex="1">
          <mxGeometry x="185" y="160" width="20" height="210" as="geometry" />
        </mxCell>
        <mxCell id="ZYoF0feH29Gr8LBUgofb-6" value="" style="shape=curlyBracket;whiteSpace=wrap;html=1;rounded=1;labelPosition=left;verticalLabelPosition=middle;align=right;verticalAlign=middle;rotation=-90;" parent="1" vertex="1">
          <mxGeometry x="425" y="160" width="20" height="210" as="geometry" />
        </mxCell>
        <mxCell id="ZYoF0feH29Gr8LBUgofb-7" value="" style="shape=curlyBracket;whiteSpace=wrap;html=1;rounded=1;labelPosition=left;verticalLabelPosition=middle;align=right;verticalAlign=middle;rotation=-90;" parent="1" vertex="1">
          <mxGeometry x="665" y="160" width="20" height="210" as="geometry" />
        </mxCell>
        <mxCell id="ZYoF0feH29Gr8LBUgofb-8" value="Authentication (ECDSA Signature)&lt;div&gt;Replay Protection (nonce-based)&lt;/div&gt;" style="text;html=1;align=center;verticalAlign=middle;whiteSpace=wrap;rounded=0;" parent="1" vertex="1">
          <mxGeometry x="90" y="275" width="210" height="30" as="geometry" />
        </mxCell>
        <mxCell id="ZYoF0feH29Gr8LBUgofb-9" value="DoS Protection (EOA Pays Gas)" style="text;html=1;align=center;verticalAlign=middle;whiteSpace=wrap;rounded=0;" parent="1" vertex="1">
          <mxGeometry x="330" y="280" width="210" height="30" as="geometry" />
        </mxCell>
        <mxCell id="ZYoF0feH29Gr8LBUgofb-10" value="Transaction Effects (Programmable)" style="text;html=1;align=center;verticalAlign=middle;whiteSpace=wrap;rounded=0;" parent="1" vertex="1">
          <mxGeometry x="570" y="280" width="210" height="30" as="geometry" />
        </mxCell>
        <mxCell id="ZYoF0feH29Gr8LBUgofb-16" value="Transaction" style="swimlane;fontStyle=0;childLayout=stackLayout;horizontal=1;startSize=20;horizontalStack=0;resizeParent=1;resizeParentMax=0;resizeLast=0;collapsible=1;marginBottom=0;whiteSpace=wrap;html=1;" parent="1" vertex="1">
          <mxGeometry x="100" y="80" width="180" height="170" as="geometry" />
        </mxCell>
        <mxCell id="ZYoF0feH29Gr8LBUgofb-17" value="signature (v, r, s)" style="text;strokeColor=none;fillColor=none;align=left;verticalAlign=middle;spacingLeft=4;spacingRight=4;overflow=hidden;points=[[0,0.5],[1,0.5]];portConstraint=eastwest;rotatable=0;whiteSpace=wrap;html=1;" parent="ZYoF0feH29Gr8LBUgofb-16" vertex="1">
          <mxGeometry y="20" width="180" height="30" as="geometry" />
        </mxCell>
        <mxCell id="ZYoF0feH29Gr8LBUgofb-18" value="nonce" style="text;strokeColor=none;fillColor=none;align=left;verticalAlign=middle;spacingLeft=4;spacingRight=4;overflow=hidden;points=[[0,0.5],[1,0.5]];portConstraint=eastwest;rotatable=0;whiteSpace=wrap;html=1;" parent="ZYoF0feH29Gr8LBUgofb-16" vertex="1">
          <mxGeometry y="50" width="180" height="30" as="geometry" />
        </mxCell>
        <mxCell id="ZYoF0feH29Gr8LBUgofb-20" value="to" style="text;strokeColor=none;fillColor=none;align=left;verticalAlign=middle;spacingLeft=4;spacingRight=4;overflow=hidden;points=[[0,0.5],[1,0.5]];portConstraint=eastwest;rotatable=0;whiteSpace=wrap;html=1;" parent="ZYoF0feH29Gr8LBUgofb-16" vertex="1">
          <mxGeometry y="80" width="180" height="30" as="geometry" />
        </mxCell>
        <mxCell id="ZYoF0feH29Gr8LBUgofb-19" value="data" style="text;strokeColor=none;fillColor=none;align=left;verticalAlign=middle;spacingLeft=4;spacingRight=4;overflow=hidden;points=[[0,0.5],[1,0.5]];portConstraint=eastwest;rotatable=0;whiteSpace=wrap;html=1;" parent="ZYoF0feH29Gr8LBUgofb-16" vertex="1">
          <mxGeometry y="110" width="180" height="30" as="geometry" />
        </mxCell>
        <mxCell id="ZYoF0feH29Gr8LBUgofb-21" value="..." style="text;strokeColor=none;fillColor=none;align=left;verticalAlign=middle;spacingLeft=4;spacingRight=4;overflow=hidden;points=[[0,0.5],[1,0.5]];portConstraint=eastwest;rotatable=0;whiteSpace=wrap;html=1;" parent="ZYoF0feH29Gr8LBUgofb-16" vertex="1">
          <mxGeometry y="140" width="180" height="30" as="geometry" />
        </mxCell>
        <mxCell id="ZYoF0feH29Gr8LBUgofb-22" value="EOA" style="swimlane;fontStyle=0;childLayout=stackLayout;horizontal=1;startSize=20;horizontalStack=0;resizeParent=1;resizeParentMax=0;resizeLast=0;collapsible=1;marginBottom=0;whiteSpace=wrap;html=1;" parent="1" vertex="1">
          <mxGeometry x="345" y="80" width="180" height="80" as="geometry" />
        </mxCell>
        <mxCell id="ZYoF0feH29Gr8LBUgofb-23" value="nonce" style="text;strokeColor=none;fillColor=none;align=left;verticalAlign=middle;spacingLeft=4;spacingRight=4;overflow=hidden;points=[[0,0.5],[1,0.5]];portConstraint=eastwest;rotatable=0;whiteSpace=wrap;html=1;" parent="ZYoF0feH29Gr8LBUgofb-22" vertex="1">
          <mxGeometry y="20" width="180" height="30" as="geometry" />
        </mxCell>
        <mxCell id="ZYoF0feH29Gr8LBUgofb-24" value="balance" style="text;strokeColor=none;fillColor=none;align=left;verticalAlign=middle;spacingLeft=4;spacingRight=4;overflow=hidden;points=[[0,0.5],[1,0.5]];portConstraint=eastwest;rotatable=0;whiteSpace=wrap;html=1;" parent="ZYoF0feH29Gr8LBUgofb-22" vertex="1">
          <mxGeometry y="50" width="180" height="30" as="geometry" />
        </mxCell>
        <mxCell id="ZYoF0feH29Gr8LBUgofb-28" value="SCA" style="swimlane;fontStyle=0;childLayout=stackLayout;horizontal=1;startSize=20;horizontalStack=0;resizeParent=1;resizeParentMax=0;resizeLast=0;collapsible=1;marginBottom=0;whiteSpace=wrap;html=1;" parent="1" vertex="1">
          <mxGeometry x="580" y="80" width="180" height="140" as="geometry" />
        </mxCell>
        <mxCell id="ZYoF0feH29Gr8LBUgofb-29" value="nonce" style="text;strokeColor=none;fillColor=none;align=left;verticalAlign=middle;spacingLeft=4;spacingRight=4;overflow=hidden;points=[[0,0.5],[1,0.5]];portConstraint=eastwest;rotatable=0;whiteSpace=wrap;html=1;" parent="ZYoF0feH29Gr8LBUgofb-28" vertex="1">
          <mxGeometry y="20" width="180" height="30" as="geometry" />
        </mxCell>
        <mxCell id="ZYoF0feH29Gr8LBUgofb-30" value="balance" style="text;strokeColor=none;fillColor=none;align=left;verticalAlign=middle;spacingLeft=4;spacingRight=4;overflow=hidden;points=[[0,0.5],[1,0.5]];portConstraint=eastwest;rotatable=0;whiteSpace=wrap;html=1;" parent="ZYoF0feH29Gr8LBUgofb-28" vertex="1">
          <mxGeometry y="50" width="180" height="30" as="geometry" />
        </mxCell>
        <mxCell id="ZYoF0feH29Gr8LBUgofb-31" value="storage hash" style="text;strokeColor=none;fillColor=none;align=left;verticalAlign=middle;spacingLeft=4;spacingRight=4;overflow=hidden;points=[[0,0.5],[1,0.5]];portConstraint=eastwest;rotatable=0;whiteSpace=wrap;html=1;" parent="ZYoF0feH29Gr8LBUgofb-28" vertex="1">
          <mxGeometry y="80" width="180" height="30" as="geometry" />
        </mxCell>
        <mxCell id="ZYoF0feH29Gr8LBUgofb-32" value="code hash" style="text;strokeColor=none;fillColor=none;align=left;verticalAlign=middle;spacingLeft=4;spacingRight=4;overflow=hidden;points=[[0,0.5],[1,0.5]];portConstraint=eastwest;rotatable=0;whiteSpace=wrap;html=1;" parent="ZYoF0feH29Gr8LBUgofb-28" vertex="1">
          <mxGeometry y="110" width="180" height="30" as="geometry" />
        </mxCell>
        <mxCell id="ZYoF0feH29Gr8LBUgofb-34" style="edgeStyle=orthogonalEdgeStyle;rounded=0;orthogonalLoop=1;jettySize=auto;html=1;exitX=1;exitY=0.5;exitDx=0;exitDy=0;entryX=0.263;entryY=0.97;entryDx=0;entryDy=0;entryPerimeter=0;" parent="1" source="ZYoF0feH29Gr8LBUgofb-19" target="ZYoF0feH29Gr8LBUgofb-24" edge="1">
          <mxGeometry relative="1" as="geometry" />
        </mxCell>
        <mxCell id="ZYoF0feH29Gr8LBUgofb-35" value="authenticate&amp;nbsp;&lt;span style=&quot;background-color: light-dark(#ffffff, var(--ge-dark-color, #121212)); color: light-dark(rgb(0, 0, 0), rgb(255, 255, 255));&quot;&gt;as&lt;/span&gt;" style="edgeLabel;html=1;align=center;verticalAlign=middle;resizable=0;points=[];" parent="ZYoF0feH29Gr8LBUgofb-34" vertex="1" connectable="0">
          <mxGeometry x="-0.351" y="4" relative="1" as="geometry">
            <mxPoint y="3" as="offset" />
          </mxGeometry>
        </mxCell>
        <mxCell id="ZYoF0feH29Gr8LBUgofb-36" style="edgeStyle=orthogonalEdgeStyle;rounded=0;orthogonalLoop=1;jettySize=auto;html=1;exitX=1;exitY=0.5;exitDx=0;exitDy=0;entryX=0.263;entryY=0.97;entryDx=0;entryDy=0;entryPerimeter=0;endArrow=none;startFill=1;startArrow=classic;" parent="1" edge="1">
          <mxGeometry relative="1" as="geometry">
            <mxPoint x="580" y="206" as="sourcePoint" />
            <mxPoint x="468" y="160" as="targetPoint" />
          </mxGeometry>
        </mxCell>
        <mxCell id="ZYoF0feH29Gr8LBUgofb-37" value="invoke" style="edgeLabel;html=1;align=center;verticalAlign=middle;resizable=0;points=[];" parent="ZYoF0feH29Gr8LBUgofb-36" vertex="1" connectable="0">
          <mxGeometry x="-0.351" y="4" relative="1" as="geometry">
            <mxPoint x="-9" y="-4" as="offset" />
          </mxGeometry>
        </mxCell>
        <mxCell id="ZYoF0feH29Gr8LBUgofb-39" style="edgeStyle=orthogonalEdgeStyle;rounded=0;orthogonalLoop=1;jettySize=auto;html=1;dashed=1;dashPattern=1 4;" parent="1" edge="1">
          <mxGeometry relative="1" as="geometry">
            <mxPoint x="390" y="205" as="sourcePoint" />
            <mxPoint x="468" y="205" as="targetPoint" />
          </mxGeometry>
        </mxCell>
        <mxCell id="ZYoF0feH29Gr8LBUgofb-41" value="" style="rounded=0;whiteSpace=wrap;html=1;strokeColor=none;" parent="1" vertex="1">
          <mxGeometry x="45" y="400" width="760" height="300" as="geometry" />
        </mxCell>
        <mxCell id="ZYoF0feH29Gr8LBUgofb-42" value="" style="endArrow=none;dashed=1;html=1;rounded=0;" parent="1" edge="1">
          <mxGeometry width="50" height="50" relative="1" as="geometry">
            <mxPoint x="307" y="670" as="sourcePoint" />
            <mxPoint x="307" y="420" as="targetPoint" />
          </mxGeometry>
        </mxCell>
        <mxCell id="ZYoF0feH29Gr8LBUgofb-45" value="" style="shape=curlyBracket;whiteSpace=wrap;html=1;rounded=1;labelPosition=left;verticalLabelPosition=middle;align=right;verticalAlign=middle;rotation=-90;" parent="1" vertex="1">
          <mxGeometry x="652" y="504" width="20" height="210" as="geometry" />
        </mxCell>
        <mxCell id="ZYoF0feH29Gr8LBUgofb-48" value="&lt;div&gt;Authentication (Programmable)&lt;div&gt;Replay Protection (Programmable)&lt;/div&gt;&lt;/div&gt;&lt;div&gt;DoS Protection (Programmable Gas Payment)&lt;/div&gt;Transaction Effects (Programmable)" style="text;html=1;align=center;verticalAlign=middle;whiteSpace=wrap;rounded=0;" parent="1" vertex="1">
          <mxGeometry x="528.5" y="634" width="267" height="30" as="geometry" />
        </mxCell>
        <mxCell id="ZYoF0feH29Gr8LBUgofb-49" value="Transaction" style="swimlane;fontStyle=0;childLayout=stackLayout;horizontal=1;startSize=20;horizontalStack=0;resizeParent=1;resizeParentMax=0;resizeLast=0;collapsible=1;marginBottom=0;whiteSpace=wrap;html=1;" parent="1" vertex="1">
          <mxGeometry x="87" y="440" width="180" height="170" as="geometry" />
        </mxCell>
        <mxCell id="ZYoF0feH29Gr8LBUgofb-50" value="verification data" style="text;strokeColor=none;fillColor=none;align=left;verticalAlign=middle;spacingLeft=4;spacingRight=4;overflow=hidden;points=[[0,0.5],[1,0.5]];portConstraint=eastwest;rotatable=0;whiteSpace=wrap;html=1;" parent="ZYoF0feH29Gr8LBUgofb-49" vertex="1">
          <mxGeometry y="20" width="180" height="30" as="geometry" />
        </mxCell>
        <mxCell id="ZYoF0feH29Gr8LBUgofb-51" value="nonce" style="text;strokeColor=none;fillColor=none;align=left;verticalAlign=middle;spacingLeft=4;spacingRight=4;overflow=hidden;points=[[0,0.5],[1,0.5]];portConstraint=eastwest;rotatable=0;whiteSpace=wrap;html=1;" parent="ZYoF0feH29Gr8LBUgofb-49" vertex="1">
          <mxGeometry y="50" width="180" height="30" as="geometry" />
        </mxCell>
        <mxCell id="ZYoF0feH29Gr8LBUgofb-52" value="to" style="text;strokeColor=none;fillColor=none;align=left;verticalAlign=middle;spacingLeft=4;spacingRight=4;overflow=hidden;points=[[0,0.5],[1,0.5]];portConstraint=eastwest;rotatable=0;whiteSpace=wrap;html=1;" parent="ZYoF0feH29Gr8LBUgofb-49" vertex="1">
          <mxGeometry y="80" width="180" height="30" as="geometry" />
        </mxCell>
        <mxCell id="ZYoF0feH29Gr8LBUgofb-53" value="data" style="text;strokeColor=none;fillColor=none;align=left;verticalAlign=middle;spacingLeft=4;spacingRight=4;overflow=hidden;points=[[0,0.5],[1,0.5]];portConstraint=eastwest;rotatable=0;whiteSpace=wrap;html=1;" parent="ZYoF0feH29Gr8LBUgofb-49" vertex="1">
          <mxGeometry y="110" width="180" height="30" as="geometry" />
        </mxCell>
        <mxCell id="ZYoF0feH29Gr8LBUgofb-54" value="..." style="text;strokeColor=none;fillColor=none;align=left;verticalAlign=middle;spacingLeft=4;spacingRight=4;overflow=hidden;points=[[0,0.5],[1,0.5]];portConstraint=eastwest;rotatable=0;whiteSpace=wrap;html=1;" parent="ZYoF0feH29Gr8LBUgofb-49" vertex="1">
          <mxGeometry y="140" width="180" height="30" as="geometry" />
        </mxCell>
        <mxCell id="ZYoF0feH29Gr8LBUgofb-55" value="EOA" style="swimlane;fontStyle=0;childLayout=stackLayout;horizontal=1;startSize=20;horizontalStack=0;resizeParent=1;resizeParentMax=0;resizeLast=0;collapsible=1;marginBottom=0;whiteSpace=wrap;html=1;" parent="1" vertex="1">
          <mxGeometry x="332" y="440" width="180" height="80" as="geometry" />
        </mxCell>
        <mxCell id="ZYoF0feH29Gr8LBUgofb-56" value="nonce" style="text;strokeColor=none;fillColor=none;align=left;verticalAlign=middle;spacingLeft=4;spacingRight=4;overflow=hidden;points=[[0,0.5],[1,0.5]];portConstraint=eastwest;rotatable=0;whiteSpace=wrap;html=1;" parent="ZYoF0feH29Gr8LBUgofb-55" vertex="1">
          <mxGeometry y="20" width="180" height="30" as="geometry" />
        </mxCell>
        <mxCell id="ZYoF0feH29Gr8LBUgofb-57" value="balance" style="text;strokeColor=none;fillColor=none;align=left;verticalAlign=middle;spacingLeft=4;spacingRight=4;overflow=hidden;points=[[0,0.5],[1,0.5]];portConstraint=eastwest;rotatable=0;whiteSpace=wrap;html=1;" parent="ZYoF0feH29Gr8LBUgofb-55" vertex="1">
          <mxGeometry y="50" width="180" height="30" as="geometry" />
        </mxCell>
        <mxCell id="ZYoF0feH29Gr8LBUgofb-58" value="SCA" style="swimlane;fontStyle=0;childLayout=stackLayout;horizontal=1;startSize=20;horizontalStack=0;resizeParent=1;resizeParentMax=0;resizeLast=0;collapsible=1;marginBottom=0;whiteSpace=wrap;html=1;" parent="1" vertex="1">
          <mxGeometry x="567" y="440" width="180" height="140" as="geometry" />
        </mxCell>
        <mxCell id="ZYoF0feH29Gr8LBUgofb-59" value="nonce" style="text;strokeColor=none;fillColor=none;align=left;verticalAlign=middle;spacingLeft=4;spacingRight=4;overflow=hidden;points=[[0,0.5],[1,0.5]];portConstraint=eastwest;rotatable=0;whiteSpace=wrap;html=1;" parent="ZYoF0feH29Gr8LBUgofb-58" vertex="1">
          <mxGeometry y="20" width="180" height="30" as="geometry" />
        </mxCell>
        <mxCell id="ZYoF0feH29Gr8LBUgofb-60" value="balance" style="text;strokeColor=none;fillColor=none;align=left;verticalAlign=middle;spacingLeft=4;spacingRight=4;overflow=hidden;points=[[0,0.5],[1,0.5]];portConstraint=eastwest;rotatable=0;whiteSpace=wrap;html=1;" parent="ZYoF0feH29Gr8LBUgofb-58" vertex="1">
          <mxGeometry y="50" width="180" height="30" as="geometry" />
        </mxCell>
        <mxCell id="ZYoF0feH29Gr8LBUgofb-61" value="storage hash" style="text;strokeColor=none;fillColor=none;align=left;verticalAlign=middle;spacingLeft=4;spacingRight=4;overflow=hidden;points=[[0,0.5],[1,0.5]];portConstraint=eastwest;rotatable=0;whiteSpace=wrap;html=1;" parent="ZYoF0feH29Gr8LBUgofb-58" vertex="1">
          <mxGeometry y="80" width="180" height="30" as="geometry" />
        </mxCell>
        <mxCell id="ZYoF0feH29Gr8LBUgofb-62" value="code hash" style="text;strokeColor=none;fillColor=none;align=left;verticalAlign=middle;spacingLeft=4;spacingRight=4;overflow=hidden;points=[[0,0.5],[1,0.5]];portConstraint=eastwest;rotatable=0;whiteSpace=wrap;html=1;" parent="ZYoF0feH29Gr8LBUgofb-58" vertex="1">
          <mxGeometry y="110" width="180" height="30" as="geometry" />
        </mxCell>
        <mxCell id="ZYoF0feH29Gr8LBUgofb-68" style="edgeStyle=orthogonalEdgeStyle;rounded=0;orthogonalLoop=1;jettySize=auto;html=1;exitX=1;exitY=0.5;exitDx=0;exitDy=0;entryX=0;entryY=0.5;entryDx=0;entryDy=0;" parent="1" source="ZYoF0feH29Gr8LBUgofb-53" target="ZYoF0feH29Gr8LBUgofb-62" edge="1">
          <mxGeometry relative="1" as="geometry" />
        </mxCell>
        <mxCell id="ZYoF0feH29Gr8LBUgofb-69" value="invoke" style="edgeLabel;html=1;align=center;verticalAlign=middle;resizable=0;points=[];" parent="ZYoF0feH29Gr8LBUgofb-68" vertex="1" connectable="0">
          <mxGeometry x="-0.1503" y="1" relative="1" as="geometry">
            <mxPoint as="offset" />
          </mxGeometry>
        </mxCell>
        <mxCell id="ZYoF0feH29Gr8LBUgofb-72" style="edgeStyle=orthogonalEdgeStyle;rounded=0;orthogonalLoop=1;jettySize=auto;html=1;exitX=1;exitY=0.5;exitDx=0;exitDy=0;endArrow=none;startFill=1;startArrow=classic;" parent="1" edge="1">
          <mxGeometry relative="1" as="geometry">
            <mxPoint x="566" y="544" as="sourcePoint" />
            <mxPoint x="460" y="520" as="targetPoint" />
          </mxGeometry>
        </mxCell>
        <mxCell id="ZYoF0feH29Gr8LBUgofb-73" value="migrate to" style="edgeLabel;html=1;align=center;verticalAlign=middle;resizable=0;points=[];" parent="ZYoF0feH29Gr8LBUgofb-72" vertex="1" connectable="0">
          <mxGeometry x="-0.351" y="4" relative="1" as="geometry">
            <mxPoint x="-9" y="-4" as="offset" />
          </mxGeometry>
        </mxCell>
        <mxCell id="ZVY8FTALhbSQle76y_pE-1" value="&lt;b&gt;UserOperation&lt;/b&gt;" style="swimlane;fontStyle=0;childLayout=stackLayout;horizontal=1;startSize=20;horizontalStack=0;resizeParent=1;resizeParentMax=0;resizeLast=0;collapsible=1;marginBottom=0;whiteSpace=wrap;html=1;" vertex="1" parent="1">
          <mxGeometry x="87" y="810" width="180" height="170" as="geometry" />
        </mxCell>
        <mxCell id="ZVY8FTALhbSQle76y_pE-2" value="sender" style="text;strokeColor=none;fillColor=none;align=left;verticalAlign=middle;spacingLeft=4;spacingRight=4;overflow=hidden;points=[[0,0.5],[1,0.5]];portConstraint=eastwest;rotatable=0;whiteSpace=wrap;html=1;" vertex="1" parent="ZVY8FTALhbSQle76y_pE-1">
          <mxGeometry y="20" width="180" height="30" as="geometry" />
        </mxCell>
        <mxCell id="ZVY8FTALhbSQle76y_pE-3" value="nonce" style="text;strokeColor=none;fillColor=none;align=left;verticalAlign=middle;spacingLeft=4;spacingRight=4;overflow=hidden;points=[[0,0.5],[1,0.5]];portConstraint=eastwest;rotatable=0;whiteSpace=wrap;html=1;" vertex="1" parent="ZVY8FTALhbSQle76y_pE-1">
          <mxGeometry y="50" width="180" height="30" as="geometry" />
        </mxCell>
        <mxCell id="ZVY8FTALhbSQle76y_pE-4" value="callData" style="text;strokeColor=none;fillColor=none;align=left;verticalAlign=middle;spacingLeft=4;spacingRight=4;overflow=hidden;points=[[0,0.5],[1,0.5]];portConstraint=eastwest;rotatable=0;whiteSpace=wrap;html=1;" vertex="1" parent="ZVY8FTALhbSQle76y_pE-1">
          <mxGeometry y="80" width="180" height="30" as="geometry" />
        </mxCell>
        <mxCell id="ZVY8FTALhbSQle76y_pE-5" value="signature" style="text;strokeColor=none;fillColor=none;align=left;verticalAlign=middle;spacingLeft=4;spacingRight=4;overflow=hidden;points=[[0,0.5],[1,0.5]];portConstraint=eastwest;rotatable=0;whiteSpace=wrap;html=1;" vertex="1" parent="ZVY8FTALhbSQle76y_pE-1">
          <mxGeometry y="110" width="180" height="30" as="geometry" />
        </mxCell>
        <mxCell id="ZVY8FTALhbSQle76y_pE-6" value="..." style="text;strokeColor=none;fillColor=none;align=left;verticalAlign=middle;spacingLeft=4;spacingRight=4;overflow=hidden;points=[[0,0.5],[1,0.5]];portConstraint=eastwest;rotatable=0;whiteSpace=wrap;html=1;" vertex="1" parent="ZVY8FTALhbSQle76y_pE-1">
          <mxGeometry y="140" width="180" height="30" as="geometry" />
        </mxCell>
        <mxCell id="ZVY8FTALhbSQle76y_pE-9" value="UserOperations Mempool" style="swimlane;fontStyle=0;childLayout=stackLayout;horizontal=1;startSize=30;horizontalStack=0;resizeParent=1;resizeParentMax=0;resizeLast=0;collapsible=1;marginBottom=0;whiteSpace=wrap;html=1;" vertex="1" parent="1">
          <mxGeometry x="205" y="1150" width="157" height="120" as="geometry" />
        </mxCell>
        <mxCell id="ZVY8FTALhbSQle76y_pE-10" value="UserOperation" style="text;strokeColor=none;fillColor=none;align=left;verticalAlign=middle;spacingLeft=4;spacingRight=4;overflow=hidden;points=[[0,0.5],[1,0.5]];portConstraint=eastwest;rotatable=0;whiteSpace=wrap;html=1;" vertex="1" parent="ZVY8FTALhbSQle76y_pE-9">
          <mxGeometry y="30" width="157" height="30" as="geometry" />
        </mxCell>
        <mxCell id="ZVY8FTALhbSQle76y_pE-13" value="UserOperation" style="text;strokeColor=none;fillColor=none;align=left;verticalAlign=middle;spacingLeft=4;spacingRight=4;overflow=hidden;points=[[0,0.5],[1,0.5]];portConstraint=eastwest;rotatable=0;whiteSpace=wrap;html=1;" vertex="1" parent="ZVY8FTALhbSQle76y_pE-9">
          <mxGeometry y="60" width="157" height="30" as="geometry" />
        </mxCell>
        <mxCell id="ZVY8FTALhbSQle76y_pE-14" value="UserOperation" style="text;strokeColor=none;fillColor=none;align=left;verticalAlign=middle;spacingLeft=4;spacingRight=4;overflow=hidden;points=[[0,0.5],[1,0.5]];portConstraint=eastwest;rotatable=0;whiteSpace=wrap;html=1;" vertex="1" parent="ZVY8FTALhbSQle76y_pE-9">
          <mxGeometry y="90" width="157" height="30" as="geometry" />
        </mxCell>
        <mxCell id="ZVY8FTALhbSQle76y_pE-15" value="Transactions Mempool" style="swimlane;fontStyle=0;childLayout=stackLayout;horizontal=1;startSize=30;horizontalStack=0;resizeParent=1;resizeParentMax=0;resizeLast=0;collapsible=1;marginBottom=0;whiteSpace=wrap;html=1;" vertex="1" parent="1">
          <mxGeometry x="390" y="1150" width="157" height="120" as="geometry" />
        </mxCell>
        <mxCell id="ZVY8FTALhbSQle76y_pE-16" value="Transaction" style="text;strokeColor=none;fillColor=none;align=left;verticalAlign=middle;spacingLeft=4;spacingRight=4;overflow=hidden;points=[[0,0.5],[1,0.5]];portConstraint=eastwest;rotatable=0;whiteSpace=wrap;html=1;" vertex="1" parent="ZVY8FTALhbSQle76y_pE-15">
          <mxGeometry y="30" width="157" height="30" as="geometry" />
        </mxCell>
        <mxCell id="ZVY8FTALhbSQle76y_pE-17" value="Transaction" style="text;strokeColor=none;fillColor=none;align=left;verticalAlign=middle;spacingLeft=4;spacingRight=4;overflow=hidden;points=[[0,0.5],[1,0.5]];portConstraint=eastwest;rotatable=0;whiteSpace=wrap;html=1;" vertex="1" parent="ZVY8FTALhbSQle76y_pE-15">
          <mxGeometry y="60" width="157" height="30" as="geometry" />
        </mxCell>
        <mxCell id="ZVY8FTALhbSQle76y_pE-18" value="Transaction" style="text;strokeColor=none;fillColor=none;align=left;verticalAlign=middle;spacingLeft=4;spacingRight=4;overflow=hidden;points=[[0,0.5],[1,0.5]];portConstraint=eastwest;rotatable=0;whiteSpace=wrap;html=1;" vertex="1" parent="ZVY8FTALhbSQle76y_pE-15">
          <mxGeometry y="90" width="157" height="30" as="geometry" />
        </mxCell>
        <mxCell id="ZVY8FTALhbSQle76y_pE-20" value="Ethereum Network P2P &lt;b&gt;Node&lt;/b&gt;" style="text;html=1;whiteSpace=wrap;strokeColor=none;fillColor=none;align=center;verticalAlign=middle;rounded=0;" vertex="1" parent="1">
          <mxGeometry x="260" y="1100" width="211" height="30" as="geometry" />
        </mxCell>
        <mxCell id="ZVY8FTALhbSQle76y_pE-21" style="edgeStyle=orthogonalEdgeStyle;rounded=0;orthogonalLoop=1;jettySize=auto;html=1;exitX=1;exitY=0.5;exitDx=0;exitDy=0;entryX=0.407;entryY=0.008;entryDx=0;entryDy=0;entryPerimeter=0;" edge="1" parent="1" source="ZVY8FTALhbSQle76y_pE-4" target="ZVY8FTALhbSQle76y_pE-19">
          <mxGeometry relative="1" as="geometry" />
        </mxCell>
        <mxCell id="ZVY8FTALhbSQle76y_pE-22" value="eth_sendUserOperation" style="edgeLabel;html=1;align=center;verticalAlign=middle;resizable=0;points=[];fontStyle=4" vertex="1" connectable="0" parent="ZVY8FTALhbSQle76y_pE-21">
          <mxGeometry x="-0.5892" y="-2" relative="1" as="geometry">
            <mxPoint x="10" y="-2" as="offset" />
          </mxGeometry>
        </mxCell>
        <mxCell id="ZVY8FTALhbSQle76y_pE-23" value="" style="rounded=0;whiteSpace=wrap;html=1;" vertex="1" parent="1">
          <mxGeometry x="567" y="810" width="194" height="170" as="geometry" />
        </mxCell>
        <mxCell id="ZVY8FTALhbSQle76y_pE-24" value="" style="curved=1;endArrow=classic;html=1;rounded=0;exitX=0.473;exitY=-0.003;exitDx=0;exitDy=0;exitPerimeter=0;entryX=0;entryY=0.5;entryDx=0;entryDy=0;" edge="1" parent="1" source="ZVY8FTALhbSQle76y_pE-19" target="ZVY8FTALhbSQle76y_pE-23">
          <mxGeometry width="50" height="50" relative="1" as="geometry">
            <mxPoint x="400" y="1000" as="sourcePoint" />
            <mxPoint x="450" y="950" as="targetPoint" />
            <Array as="points">
              <mxPoint x="362" y="1020" />
              <mxPoint x="360" y="960" />
              <mxPoint x="390" y="930" />
            </Array>
          </mxGeometry>
        </mxCell>
        <mxCell id="ZVY8FTALhbSQle76y_pE-25" value="&lt;b&gt;Bundler&lt;/b&gt;" style="text;html=1;whiteSpace=wrap;strokeColor=none;fillColor=none;align=center;verticalAlign=middle;rounded=0;" vertex="1" parent="1">
          <mxGeometry x="586.5" y="810" width="156.5" height="30" as="geometry" />
        </mxCell>
        <mxCell id="ZVY8FTALhbSQle76y_pE-26" value="Bundle-Transaction" style="swimlane;fontStyle=0;childLayout=stackLayout;horizontal=1;startSize=30;horizontalStack=0;resizeParent=1;resizeParentMax=0;resizeLast=0;collapsible=1;marginBottom=0;whiteSpace=wrap;html=1;" vertex="1" parent="1">
          <mxGeometry x="586" y="850" width="157" height="120" as="geometry" />
        </mxCell>
        <mxCell id="ZVY8FTALhbSQle76y_pE-27" value="UserOperation" style="text;strokeColor=none;fillColor=none;align=left;verticalAlign=middle;spacingLeft=4;spacingRight=4;overflow=hidden;points=[[0,0.5],[1,0.5]];portConstraint=eastwest;rotatable=0;whiteSpace=wrap;html=1;" vertex="1" parent="ZVY8FTALhbSQle76y_pE-26">
          <mxGeometry y="30" width="157" height="30" as="geometry" />
        </mxCell>
        <mxCell id="ZVY8FTALhbSQle76y_pE-28" value="UserOperation" style="text;strokeColor=none;fillColor=none;align=left;verticalAlign=middle;spacingLeft=4;spacingRight=4;overflow=hidden;points=[[0,0.5],[1,0.5]];portConstraint=eastwest;rotatable=0;whiteSpace=wrap;html=1;" vertex="1" parent="ZVY8FTALhbSQle76y_pE-26">
          <mxGeometry y="60" width="157" height="30" as="geometry" />
        </mxCell>
        <mxCell id="ZVY8FTALhbSQle76y_pE-29" value="UserOperation" style="text;strokeColor=none;fillColor=none;align=left;verticalAlign=middle;spacingLeft=4;spacingRight=4;overflow=hidden;points=[[0,0.5],[1,0.5]];portConstraint=eastwest;rotatable=0;whiteSpace=wrap;html=1;" vertex="1" parent="ZVY8FTALhbSQle76y_pE-26">
          <mxGeometry y="90" width="157" height="30" as="geometry" />
        </mxCell>
        <mxCell id="ZVY8FTALhbSQle76y_pE-31" value="" style="curved=1;endArrow=none;html=1;rounded=0;entryX=0.5;entryY=1;entryDx=0;entryDy=0;exitX=0.659;exitY=0.998;exitDx=0;exitDy=0;endFill=0;startArrow=classic;startFill=1;exitPerimeter=0;" edge="1" parent="1" source="ZVY8FTALhbSQle76y_pE-19" target="ZVY8FTALhbSQle76y_pE-23">
          <mxGeometry width="50" height="50" relative="1" as="geometry">
            <mxPoint x="602" y="1110" as="sourcePoint" />
            <mxPoint x="712" y="1030" as="targetPoint" />
            <Array as="points">
              <mxPoint x="430" y="1400" />
              <mxPoint x="680" y="1350" />
            </Array>
          </mxGeometry>
        </mxCell>
        <mxCell id="ZVY8FTALhbSQle76y_pE-33" value="fetch and verify" style="text;html=1;whiteSpace=wrap;strokeColor=none;fillColor=none;align=center;verticalAlign=middle;rounded=0;rotation=-15;" vertex="1" parent="1">
          <mxGeometry x="413.5" y="890" width="115" height="30" as="geometry" />
        </mxCell>
        <mxCell id="ZVY8FTALhbSQle76y_pE-34" value="UserOperations" style="text;html=1;whiteSpace=wrap;strokeColor=none;fillColor=none;align=center;verticalAlign=middle;rounded=0;rotation=-15;" vertex="1" parent="1">
          <mxGeometry x="420" y="914.9999999999999" width="120" height="20" as="geometry" />
        </mxCell>
        <mxCell id="ZVY8FTALhbSQle76y_pE-35" value="Submit Transaction&lt;div&gt;bundling&lt;/div&gt;&lt;div&gt;UserOperations&lt;/div&gt;" style="text;html=1;whiteSpace=wrap;strokeColor=none;fillColor=none;align=center;verticalAlign=middle;rounded=0;" vertex="1" parent="1">
          <mxGeometry x="609.5" y="1300" width="95" height="80" as="geometry" />
        </mxCell>
        <mxCell id="ZVY8FTALhbSQle76y_pE-36" value="" style="endArrow=none;dashed=1;html=1;rounded=0;" edge="1" parent="1">
          <mxGeometry width="50" height="50" relative="1" as="geometry">
            <mxPoint x="58" y="1390" as="sourcePoint" />
            <mxPoint x="790" y="1390" as="targetPoint" />
          </mxGeometry>
        </mxCell>
        <mxCell id="ZVY8FTALhbSQle76y_pE-37" value="" style="rounded=0;whiteSpace=wrap;html=1;" vertex="1" parent="1">
          <mxGeometry x="87" y="1450" width="213" height="160" as="geometry" />
        </mxCell>
        <mxCell id="ZVY8FTALhbSQle76y_pE-38" value="&lt;b&gt;EntryPoint&lt;/b&gt; Contract" style="text;html=1;whiteSpace=wrap;strokeColor=none;fillColor=none;align=center;verticalAlign=middle;rounded=0;" vertex="1" parent="1">
          <mxGeometry x="130" y="1460" width="120" height="30" as="geometry" />
        </mxCell>
        <mxCell id="ZVY8FTALhbSQle76y_pE-46" value="" style="rounded=0;whiteSpace=wrap;html=1;" vertex="1" parent="1">
          <mxGeometry x="425" y="1435" width="215" height="130" as="geometry" />
        </mxCell>
        <mxCell id="ZVY8FTALhbSQle76y_pE-48" value="" style="rounded=0;whiteSpace=wrap;html=1;" vertex="1" parent="1">
          <mxGeometry x="440" y="1455" width="215" height="130" as="geometry" />
        </mxCell>
        <mxCell id="ZVY8FTALhbSQle76y_pE-49" value="" style="rounded=0;whiteSpace=wrap;html=1;" vertex="1" parent="1">
          <mxGeometry x="455.5" y="1475" width="215" height="130" as="geometry" />
        </mxCell>
        <mxCell id="ZVY8FTALhbSQle76y_pE-50" value="" style="rounded=0;whiteSpace=wrap;html=1;" vertex="1" parent="1">
          <mxGeometry x="470" y="1495" width="215" height="130" as="geometry" />
        </mxCell>
        <mxCell id="ZVY8FTALhbSQle76y_pE-47" value="&lt;b&gt;Wallet&lt;/b&gt; Contract" style="text;html=1;whiteSpace=wrap;strokeColor=none;fillColor=none;align=center;verticalAlign=middle;rounded=0;" vertex="1" parent="1">
          <mxGeometry x="509.5" y="1505" width="120" height="30" as="geometry" />
        </mxCell>
      </root>
    </mxGraphModel>
  </diagram>
</mxfile>
